<?xml version="1.0"?><svg version="1.2" baseProfile="tiny-ps" viewBox="0 0 300 300" xmlns="http://www.w3.org/2000/svg" xmlns:xlink="http://www.w3.org/1999/xlink"><title>Victory Vision</title><g><g fill="#fefefe" transform="matrix(.1 0 0 -.1 0 300)"><path d="M0 1500V0h3000v3000H0V1500z"/></g><g fill="#dfc8d4" transform="matrix(.1 0 0 -.1 0 300)"><path d="M0 2500v-110l281-487c155-269 339-587 409-708s198-344 285-495 167-287 177-303l19-27h188l5 8c2 4-56 113-131 242-74 129-273 474-440 765-344 597-556 964-585 1013l-20 32h277l174-308c405-714 644-1136 814-1435l180-317 205 2 205 3 9 15c8 15 136 282 188 395 15 33 56 119 90 190 34 72 97 204 140 295 42 91 179 380 304 642l226 478v221l-152-3-153-3-42-80c-23-44-42-86-43-92v-13h202l-4-9c-11-29-742-1567-747-1574l-7-7-129 227c-71 126-252 437-403 693-152 256-327 554-391 662l-116 198H0v-110zm1120-432c118-200 281-475 363-613 82-137 223-381 313-542l165-292-21-41-20-40h-175l-66 118c-66 118-367 650-776 1371-123 216-223 395-223 397s51 4 113 4h113l214-362zm150 536c0-4 21-47 47-95l48-89h417c230 0 418-2 418-5 0-2-79-182-175-400l-175-395 55-85c30-47 59-85 64-85 4 0 24 37 43 83 20 45 133 301 252 569s216 492 216 497v11H1270v-6z"/></g><g fill="#ce738c" transform="matrix(.1 0 0 -.1 0 300)"><path d="M0 2504v-105l551-957c304-526 566-981 583-1009l31-53h197l-5 13c-4 11-639 1115-1079 1875-48 84-88 155-88 158 0 2 63 3 141 2l140-3 417-735c229-404 490-864 580-1023l163-287h414l478 1008 477 1009v203h-306l-42-85-42-84 105-3 104-3-379-799c-209-439-380-800-382-802s-59 95-126 214-301 521-521 892l-399 675-506 3-506 2v-106zm1263-669c359-606 697-1195 697-1214 0-6-8-26-17-46l-17-35h-183l-526 929c-290 511-530 936-533 945l-6 17 118-3 118-3 349-590zm17 759c0-4 19-42 42-85l42-79h423c233 0 423-2 423-4s-79-181-175-397-175-399-175-407c0-7 24-49 54-93l54-81 5 9c5 7 461 1035 493 1111l14 32h-600c-330 0-600-3-600-6z"/></g><g fill="#70859e" transform="matrix(.1 0 0 -.1 0 300)"><path d="M0 2509v-101l133-232c74-127 333-577 577-1001s448-776 455-783l12-13 91 3 92 3-343 595C339 2154 180 2431 180 2436c0 2 64 4 143 4l142-1 420-742c231-408 493-871 583-1029l163-288h414l478 1008 477 1009v203h-306l-42-85-42-84 104-3 104-3-139-295c-77-162-249-524-381-803l-241-508-8 8c-4 4-63 107-131 228-69 121-235 407-370 635s-305 516-378 640-141 237-152 253l-19 27H0v-101zm1176-519c534-902 784-1338 784-1365 0-8-8-30-17-50l-17-35h-183l-525 928c-289 510-531 937-537 950l-12 23 122-3 122-3 263-445zm146 528 44-83 423-3 423-2-4-18c-3-9-83-191-178-405l-172-387 52-81 53-80 8 8c8 9 488 1087 496 1116l5 17H1278l44-82z"/></g><g fill="#ba143f" transform="matrix(.1 0 0 -.1 0 300)"><path d="M0 2509v-101l133-232c74-127 333-577 577-1001s448-776 455-783l12-13 91 3 92 3-343 595C339 2154 180 2431 180 2436c0 2 65 4 144 4h143l280-492c154-271 416-735 584-1031l304-537 204 2 204 3 478 1010 479 1010v195h-300l-40-80c-22-44-40-82-40-85s45-5 100-5h100v-7c-1-5-171-366-378-803l-377-795-10 1c-5 1-66 102-135 225-70 123-237 411-372 639s-305 516-378 640-141 237-152 253l-19 27H0v-101zm1176-519c399-674 509-863 658-1128l137-243-23-42-23-42-91-3-90-3-531 939c-293 516-535 946-539 955l-6 18 122-3 123-3 263-445zm146 528 44-83 423-3 423-2-4-18c-3-9-83-191-178-405l-172-387 52-81 53-80 8 8c8 9 488 1087 496 1116l5 17H1278l44-82z"/></g><g fill="#0c3060" transform="matrix(.1 0 0 -.1 0 300)"><path d="M2660 2520c-22-44-40-82-40-85s45-5 100-5 100-2 100-5-165-353-367-778c-201-424-400-844-441-932s-79-166-84-172l-10-13h-174l-539 951c-296 523-544 953-550 955-6 3-51 4-98 2l-87-3 273-480c150-264 412-726 582-1028l310-547 204 2 204 3 478 1010 479 1010v195h-300l-40-80z"/></g></g></svg>